<svg xmlns="http://www.w3.org/2000/svg" version="1.2" viewBox="0 0 40 50" width="40" height="50">
	<style />
	<path fill-rule="evenodd" d="m12 1.5c-1.9 0.9-4.3 2.4-5.4 3.3-1 0.9-2.7 3.4-3.7 5.4-1.6 3.1-1.9 6.1-1.9 16.5l-0.1 12.8 15.1 10.5c0-9.3-0.7-13.7-1.6-15.8-0.8-2-2.9-5.1-4.5-6.7-1.8-1.8-2.9-3.8-2.7-5 0.3-1.6 1.2-2 5.1-2.3l4.7-0.2c0 8.8 0.1 9 3 9 2.9 0 3-0.2 3-4.5v-4.5c8.6 0.5 9.5 0.9 9.8 2.5 0.2 1.2-1 3.3-3.2 5.5-1.9 1.9-4 4.7-4.5 6.2-0.6 1.6-1.1 5.7-1.1 9.3v6.5l15.2-10.5c-0.7-26.2-0.9-27.4-3.2-30.8-1.4-1.9-3.9-4.5-5.5-5.6-1.9-1.4-5.2-2.3-9-2.6-4.2-0.4-7-0.1-9.5 1z" />
</svg>
